<?xml version="1.0" encoding="utf-8"?>
<!-- Generator: Adobe Illustrator 24.0.2, SVG Export Plug-In . SVG Version: 6.00 Build 0)  -->
<svg version="1.1" id="Layer_1" xmlns="http://www.w3.org/2000/svg" xmlns:xlink="http://www.w3.org/1999/xlink" x="0px" y="0px"
	 viewBox="0 0 512 512" style="enable-background:new 0 0 512 512;" xml:space="preserve">
<style type="text/css">
	.st0{fill:#FFFFFF;}
</style>
<title>Adventure</title>
<path class="st0" d="M434,360.7V182h-48v260.6C415,426.1,434,394.6,434,360.7z"/>
<rect x="395" y="65" class="st0" width="29" height="77"/>
<polygon class="st0" points="455,156 431.5,156 388.5,156 364,156 364,168 455,168 "/>
<path class="st0" d="M181.4,443.4l5.5,2.8l5.7-2.8c79-38.3,124.5-77.2,124.5-162.7V121H57v159.7C57,366.2,102.4,405.1,181.4,443.4z
	 M87,149.7c-0.2-3.5,2.5-6.5,6-6.7c0.2,0,0.4,0,0.5,0h187c3.5-0.1,6.4,2.7,6.5,6.2c0,0.2,0,0.3,0,0.5v135.8
	c0,64-34.7,93.9-91.2,121.2l-5.7,2.9c-0.9,0.5-2,0.7-3,0.7c-1,0-2.1-0.2-3-0.7l-5.9-2.9C121.7,379.4,87,349.6,87,285.6V149.7z"/>
<path class="st0" d="M273,285.6V157h-80v235.7C244,367.5,273,341.4,273,285.6z"/>
<path class="st0" d="M179,391.7V157h-78v128.6C101,340.7,129.2,366.8,179,391.7z"/>
</svg>
