<?xml version="1.0"?>
<svg xmlns="http://www.w3.org/2000/svg" id="Layer_1" data-name="Layer 1" viewBox="0 0 512 512" width="512" height="512"><title>Adventure</title><path d="M434,360.668V182H386V442.641C415,426.138,434,394.564,434,360.668Z"/><rect x="395" y="65" width="29" height="77"/><polygon points="455 156 431.496 156 388.496 156 364 156 364 168 455 168 455 156"/><path d="M181.4,443.418l5.468,2.8,5.655-2.8C271.515,405.116,317,366.211,317,280.7V121H57V280.7C57,366.21,102.419,405.116,181.4,443.418ZM87,149.711A6.352,6.352,0,0,1,93.506,143H280.477A6.365,6.365,0,0,1,287,149.711V285.556c0,64.026-34.729,93.851-91.174,121.222l-5.749,2.912a6.866,6.866,0,0,1-3.024.7,6.733,6.733,0,0,1-2.993-.7l-5.88-2.912C121.736,379.406,87,349.58,87,285.555Z"/><path d="M273,285.556V157H193V392.676C244.017,367.5,273,341.414,273,285.556Z"/><path d="M179,391.7V157H101V285.555C101,340.69,129.2,366.817,179,391.7Z"/></svg>
