<?xml version="1.0" encoding="utf-8"?>
<!-- Generator: Adobe Illustrator 24.0.2, SVG Export Plug-In . SVG Version: 6.00 Build 0)  -->
<svg version="1.1" id="Capa_1" xmlns="http://www.w3.org/2000/svg" xmlns:xlink="http://www.w3.org/1999/xlink" x="0px" y="0px"
	 viewBox="0 0 512 512" style="enable-background:new 0 0 512 512;" xml:space="preserve">
<style type="text/css">
	.st0{fill:#FFFFFF;}
</style>
<g>
	<path class="st0" d="M466.8,195.8c-19.6,0-36.4,12.6-42.6,30.1h-32.7v-45.2h-30.1v45.2h-30.1v-60.2h-30.1v60.2h-30.1v-90.4H105.4
		C47.3,135.5,0,182.8,0,240.9s47.3,105.4,105.4,105.4h101.2l-7.5,30.1c-9.9,0-84.3,0-93.7,0c-13,0-25.5-1.8-37.4-5.2l-6.4,35.4h161
		l15.1-60.2h33.4V256h30.1v60.2h30.1V256h30.1v30.1h30.1V256h32.7c6.2,17.5,23,30.1,42.6,30.1c24.9,0,45.2-20.3,45.2-45.2
		C512,216,491.7,195.8,466.8,195.8z M105.4,286.1c-24.9,0-45.2-20.3-45.2-45.2c0-24.9,20.3-45.2,45.2-45.2
		c19.6,0,36.4,12.6,42.6,30.1h62.8V256H148C141.8,273.5,125,286.1,105.4,286.1z"/>
	<path class="st0" d="M90.4,75.3h45.2v30.1h60.2V75.3h45.2c16.6,0,30.1-13.5,30.1-30.1s-13.5-30.1-30.1-30.1H90.4
		c-16.6,0-30.1,13.5-30.1,30.1S73.7,75.3,90.4,75.3z"/>
	<path class="st0" d="M45.2,496.9h90.4l11-60.2H56.1L45.2,496.9z"/>
	<circle class="st0" cx="105.5" cy="241.1" r="15.1"/>
</g>
</svg>
