<svg id="Capa_1" enable-background="new 0 0 510 510" height="512" viewBox="0 0 510 510" width="512" xmlns="http://www.w3.org/2000/svg"><g><path d="m465 195c-19.555 0-36.228 12.541-42.42 30h-32.58v-45h-30v45h-30v-60h-30v60h-30v-90h-165c-57.897 0-105 47.103-105 105s47.103 105 105 105h100.789l-7.5 30c-9.83 0-83.959 0-93.289 0-12.91 0-25.4-1.825-37.232-5.225l-6.404 35.225h160.348l15-60h33.288v-90h30v60h30v-60h30v30h30v-30h32.58c6.192 17.459 22.865 30 42.42 30 24.813 0 45-20.186 45-45 0-24.813-20.187-45-45-45zm-360 90c-24.813 0-45-20.186-45-45 0-24.813 20.187-45 45-45 19.555 0 36.227 12.541 42.42 30h62.58v30h-62.58c-6.193 17.459-22.865 30-42.42 30z"/><path d="m90 75h45v30h60v-30h45c16.568 0 30-13.432 30-30 0-16.568-13.432-30-30-30h-150c-16.568 0-30 13.432-30 30 0 16.568 13.432 30 30 30z"/><path d="m45 495h90l10.909-60h-90z"/><circle cx="105.062" cy="240.135" r="15"/></g></svg>