<?xml version="1.0" encoding="iso-8859-1"?>
<!-- Generator: Adobe Illustrator 19.0.0, SVG Export Plug-In . SVG Version: 6.00 Build 0)  -->
<svg version="1.1" id="Layer_1" xmlns="http://www.w3.org/2000/svg" xmlns:xlink="http://www.w3.org/1999/xlink" x="0px" y="0px"
	 viewBox="0 0 511.999 511.999" style="enable-background:new 0 0 511.999 511.999;" xml:space="preserve">
<g>
	<g>
		<path d="M502.141,241.125c5.107-13.469,3.272-28.585-4.911-40.439l-20.029-29.019c-1.813-2.624-2.974-5.685-3.358-8.853
			l-4.25-35.004c-1.737-14.298-10.388-26.83-23.14-33.523L415.231,77.9c-2.825-1.482-5.277-3.654-7.088-6.279l-20.029-29.018
			c-8.182-11.854-21.665-18.931-36.07-18.931h-35.26c-3.19,0-6.368-0.784-9.192-2.266L276.368,5.019h-0.001
			c-12.751-6.692-27.979-6.692-40.736,0l-31.222,16.386c-2.825,1.482-6.003,2.266-9.192,2.266h-35.26
			c-14.404,0-27.888,7.078-36.069,18.93l-20.032,29.019c-1.811,2.624-4.262,4.796-7.087,6.278L65.547,94.285
			c-12.752,6.693-21.403,19.226-23.141,33.524l-4.251,35.005c-0.382,3.165-1.544,6.226-3.357,8.852L14.77,200.685
			c-8.184,11.854-10.018,26.971-4.911,40.439l12.503,32.969c1.13,2.983,1.526,6.234,1.141,9.4l-4.25,35.004
			c-1.736,14.298,3.664,28.536,14.446,38.089l26.393,23.381c2.388,2.116,4.247,4.81,5.379,7.793l12.503,32.969
			c3.379,8.91,9.523,16.33,17.336,21.34c-2.294-10.843-3.51-22.08-3.51-33.596v-124.91c0-32.911,26.775-59.687,59.687-59.687
			c19.125,0,37.508,5.808,53.162,16.796l12.002,8.425c23.535,16.522,55.162,16.522,78.697,0l12.002-8.425
			c15.654-10.988,34.037-16.796,53.163-16.796c32.912,0,59.687,26.775,59.687,59.687v124.91c0,11.516-1.215,22.753-3.51,33.596
			c7.813-5.01,13.957-12.429,17.336-21.34l12.503-32.97c1.13-2.982,2.99-5.676,5.379-7.792l26.393-23.382
			c10.782-9.552,16.182-23.79,14.446-38.089l-4.25-35.004c-0.383-3.167,0.011-6.417,1.141-9.399L502.141,241.125z"/>
	</g>
</g>
<g>
	<g>
		<path d="M371.726,312.764c-7.893-13.626-22.569-22.092-38.302-22.092c-15.738,0-30.418,8.47-38.307,22.103
			c-3.327,5.747-1.363,13.102,4.383,16.427c1.896,1.098,3.967,1.618,6.01,1.618c4.151,0,8.19-2.152,10.417-6.003
			c3.605-6.231,10.309-10.102,17.496-10.102c7.185,0,13.887,3.869,17.495,10.097c3.327,5.744,10.679,7.709,16.428,4.38
			C373.092,325.864,375.052,318.509,371.726,312.764z"/>
	</g>
</g>
<g>
	<g>
		<path d="M216.883,312.764c-7.891-13.626-22.568-22.092-38.302-22.092c-15.738,0-30.418,8.47-38.307,22.103
			c-3.327,5.747-1.363,13.102,4.383,16.427c1.896,1.098,3.967,1.618,6.01,1.618c4.151,0,8.19-2.152,10.417-6.003
			c3.605-6.231,10.309-10.102,17.496-10.102c7.185,0,13.887,3.869,17.495,10.097c3.327,5.744,10.678,7.709,16.428,4.38
			C218.25,325.864,220.21,318.509,216.883,312.764z"/>
	</g>
</g>
<g>
	<g>
		<path d="M349.074,384.139c-9.959,0-18.033,8.074-18.033,18.033c0,40.671-33.088,73.76-73.76,73.76h-2.56
			c-40.671,0-73.76-33.089-73.76-73.76c0-9.959-8.074-18.033-18.033-18.033c-9.959,0-18.033,8.074-18.033,18.033
			c0,60.559,49.267,109.827,109.827,109.827h2.56c60.559,0,109.827-49.268,109.827-109.827
			C367.108,392.213,359.034,384.139,349.074,384.139z"/>
	</g>
</g>
<g>
	<g>
		<circle cx="256.003" cy="390.158" r="40.176"/>
	</g>
</g>
<g>
</g>
<g>
</g>
<g>
</g>
<g>
</g>
<g>
</g>
<g>
</g>
<g>
</g>
<g>
</g>
<g>
</g>
<g>
</g>
<g>
</g>
<g>
</g>
<g>
</g>
<g>
</g>
<g>
</g>
</svg>
