<?xml version="1.0" encoding="utf-8"?>
<!-- Generator: Adobe Illustrator 24.0.2, SVG Export Plug-In . SVG Version: 6.00 Build 0)  -->
<svg version="1.1" id="Layer_1" xmlns="http://www.w3.org/2000/svg" xmlns:xlink="http://www.w3.org/1999/xlink" x="0px" y="0px"
	 viewBox="0 0 512 512" style="enable-background:new 0 0 512 512;" xml:space="preserve">
<style type="text/css">
	.st0{fill:#FFFFFF;}
</style>
<g>
	<g>
		<path class="st0" d="M502.1,241.1c5.1-13.5,3.3-28.6-4.9-40.4l-20-29c-1.8-2.6-3-5.7-3.4-8.9l-4.3-35
			c-1.7-14.3-10.4-26.8-23.1-33.5l-31.2-16.4c-2.8-1.5-5.3-3.7-7.1-6.3l-20-29c-8.2-11.9-21.7-18.9-36.1-18.9h-35.3
			c-3.2,0-6.4-0.8-9.2-2.3L276.4,5h0c-12.8-6.7-28-6.7-40.7,0l-31.2,16.4c-2.8,1.5-6,2.3-9.2,2.3H160c-14.4,0-27.9,7.1-36.1,18.9
			l-20,29c-1.8,2.6-4.3,4.8-7.1,6.3L65.5,94.3c-12.8,6.7-21.4,19.2-23.1,33.5l-4.3,35c-0.4,3.2-1.5,6.2-3.4,8.9l-20,29
			c-8.2,11.9-10,27-4.9,40.4l12.5,33c1.1,3,1.5,6.2,1.1,9.4l-4.3,35c-1.7,14.3,3.7,28.5,14.4,38.1L60.1,380c2.4,2.1,4.2,4.8,5.4,7.8
			l12.5,33c3.4,8.9,9.5,16.3,17.3,21.3c-2.3-10.8-3.5-22.1-3.5-33.6V283.6c0-32.9,26.8-59.7,59.7-59.7c19.1,0,37.5,5.8,53.2,16.8
			l12,8.4c23.5,16.5,55.2,16.5,78.7,0l12-8.4c15.7-11,34-16.8,53.2-16.8c32.9,0,59.7,26.8,59.7,59.7v124.9c0,11.5-1.2,22.8-3.5,33.6
			c7.8-5,14-12.4,17.3-21.3l12.5-33c1.1-3,3-5.7,5.4-7.8l26.4-23.4c10.8-9.6,16.2-23.8,14.4-38.1l-4.3-35c-0.4-3.2,0-6.4,1.1-9.4
			L502.1,241.1z"/>
	</g>
</g>
<g>
	<g>
		<path class="st0" d="M371.7,312.8c-7.9-13.6-22.6-22.1-38.3-22.1c-15.7,0-30.4,8.5-38.3,22.1c-3.3,5.7-1.4,13.1,4.4,16.4
			c1.9,1.1,4,1.6,6,1.6c4.2,0,8.2-2.2,10.4-6c3.6-6.2,10.3-10.1,17.5-10.1c7.2,0,13.9,3.9,17.5,10.1c3.3,5.7,10.7,7.7,16.4,4.4
			C373.1,325.9,375.1,318.5,371.7,312.8z"/>
	</g>
</g>
<g>
	<g>
		<path class="st0" d="M216.9,312.8c-7.9-13.6-22.6-22.1-38.3-22.1c-15.7,0-30.4,8.5-38.3,22.1c-3.3,5.7-1.4,13.1,4.4,16.4
			c1.9,1.1,4,1.6,6,1.6c4.2,0,8.2-2.2,10.4-6c3.6-6.2,10.3-10.1,17.5-10.1c7.2,0,13.9,3.9,17.5,10.1c3.3,5.7,10.7,7.7,16.4,4.4
			C218.3,325.9,220.2,318.5,216.9,312.8z"/>
	</g>
</g>
<g>
	<g>
		<path class="st0" d="M349.1,384.1c-10,0-18,8.1-18,18c0,40.7-33.1,73.8-73.8,73.8h-2.6c-40.7,0-73.8-33.1-73.8-73.8
			c0-10-8.1-18-18-18s-18,8.1-18,18c0,60.6,49.3,109.8,109.8,109.8h2.6c60.6,0,109.8-49.3,109.8-109.8
			C367.1,392.2,359,384.1,349.1,384.1z"/>
	</g>
</g>
<g>
	<g>
		<circle class="st0" cx="256" cy="390.2" r="40.2"/>
	</g>
</g>
</svg>
