<?xml version="1.0" encoding="utf-8"?>
<!-- Generator: Adobe Illustrator 24.0.2, SVG Export Plug-In . SVG Version: 6.00 Build 0)  -->
<svg version="1.1" id="Capa_1" xmlns="http://www.w3.org/2000/svg" xmlns:xlink="http://www.w3.org/1999/xlink" x="0px" y="0px"
	 viewBox="0 0 512 512" style="enable-background:new 0 0 512 512;" xml:space="preserve">
<style type="text/css">
	.st0{fill:#FFFFFF;}
</style>
<g>
	<g>
		<polygon class="st0" points="125.8,76 95.8,166 124.2,166 154.2,76 		"/>
	</g>
</g>
<g>
	<g>
		<path class="st0" d="M497,76h-15V61c0-8.3-6.7-15-15-15c-8.3,0-15,6.7-15,15v15H185.8l-30,90H512V91C512,82.7,505.3,76,497,76z"/>
	</g>
</g>
<g>
	<g>
		<path class="st0" d="M45,76c-8.3,0-15,6.7-15,15c0,8.3-6.7,15-15,15c-8.3,0-15,6.7-15,15v45h64.2l30-90H45z"/>
	</g>
</g>
<g>
	<g>
		<path class="st0" d="M0,196v15c0,8.3,6.7,15,15,15c8.3,0,15,6.7,15.1,12.9L5.2,414.6c-3.9,27.1,17,51.4,44.4,51.4h59
			c22.6,0,41.7-16.9,44.6-39.3l10.3-80.7H225c24.8,0,45-20.2,45-45v-45h167c5.7,0,10.9-3.2,13.4-8.3l25.9-51.7
			C113.3,196,194.3,196,0,196z M180,316c-16.6,0-30-13.5-30-30s13.4-30,30-30h1c-4.1,13.2-4.9,27.4-1.2,41.1
			c1.8,6.8,4.8,13,8.4,18.9H180z M240,301c0,7.1-5.1,12.8-11.8,14.3c-9.5-5.9-16.6-15.1-19.5-26c-3-11.3-1.2-23.3,4.6-33.4H240V301z
			"/>
	</g>
</g>
</svg>
