<?xml version="1.0" encoding="iso-8859-1"?>
<!-- Generator: Adobe Illustrator 18.1.1, SVG Export Plug-In . SVG Version: 6.00 Build 0)  -->
<svg version="1.1" id="Capa_1" xmlns="http://www.w3.org/2000/svg" xmlns:xlink="http://www.w3.org/1999/xlink" x="0px" y="0px"
	 viewBox="0 0 263.998 263.998" style="enable-background:new 0 0 263.998 263.998;" xml:space="preserve">
<g>
	<path style="fill:#030104;" d="M244.472,84.316L244.472,84.316c-12.522-14.685-26.504-20.729-41.951-19.668
		c-11.182,0.77-21.592,5.316-31.201,13.537c-9.808-6.025-20.419-9.515-31.826-10.69c0.537-3.298,1.507-6.502,2.94-9.655
		c3.565-7.258,9.185-13.139,16.841-17.836c-5.785-3.49-11.577-7.011-17.379-10.602c-16.767,8.358-25.845,21.246-27.292,39.619
		c-7.837,1.759-15.143,4.626-21.911,8.7c-9.45-7.917-19.589-12.288-30.418-13.026C46.994,63.666,32.92,69.632,20.059,84.11
		C6.648,99.188,0,118.456,0,140.501c-0.007,6.57,0.696,13.041,2.116,19.323c4.736,23.497,15.879,42.66,33.576,57.073
		c15.912,13.173,30.835,18.587,44.716,17.512c7.294-0.578,14.049-4.101,20.3-10.511c10.864,5.661,21.027,8.473,30.484,8.459
		c10.165-0.012,20.868-3.045,32.098-9.176c6.422,6.901,13.37,10.669,20.842,11.274c14.226,1.108,29.509-4.239,45.764-17.366
		c18.037-14.544,28.919-33.815,32.789-57.219c0.863-5.8,1.313-11.646,1.313-17.497C264,119.432,257.511,99.618,244.472,84.316z
		 M56.51,100.753l41.931,14.948c-4.54,9.086-11.102,13.631-19.656,13.631c-2.622,0-5.069-0.431-7.344-1.313
		C59.921,122.079,54.931,112.996,56.51,100.753z M155.321,191.19L155.321,191.19l-9.442-8.653l-7.857,13.358
		c-3.497,0.35-6.822,0.529-9.967,0.529c-4.538,0-8.904-0.272-13.106-0.803l-8.904-15.439L96.609,190.4
		c-5.063-2.8-9.436-6.038-13.105-9.708c-9.085-8.553-13.802-18.52-14.154-29.874c2.966,1.745,7.658,3.568,14.101,5.473
		l10.969,14.055l9.735-10.16c4.883,0.724,9.522,1.155,13.887,1.315l11.023,11.857l9.973-12.322c3.669-0.177,7.512-0.53,11.531-1.041
		l10.234,10.476l11.274-14.672c6.117-1.392,11.544-2.885,16.264-4.459C185.367,168.649,174.354,181.927,155.321,191.19z
		 M180.737,128.809L180.737,128.809c-2.277,0.876-4.806,1.313-7.599,1.313c-8.388,0-14.942-4.553-19.648-13.637l42.183-14.929
		C197.08,113.778,192.097,122.863,180.737,128.809z"/>
</g>
<g>
</g>
<g>
</g>
<g>
</g>
<g>
</g>
<g>
</g>
<g>
</g>
<g>
</g>
<g>
</g>
<g>
</g>
<g>
</g>
<g>
</g>
<g>
</g>
<g>
</g>
<g>
</g>
<g>
</g>
</svg>
