<?xml version="1.0" encoding="utf-8"?>
<!-- Generator: Adobe Illustrator 24.0.2, SVG Export Plug-In . SVG Version: 6.00 Build 0)  -->
<svg version="1.1" id="Capa_1" xmlns="http://www.w3.org/2000/svg" xmlns:xlink="http://www.w3.org/1999/xlink" x="0px" y="0px"
	 viewBox="0 0 264 264" style="enable-background:new 0 0 264 264;" xml:space="preserve">
<style type="text/css">
	.st0{fill:#FFFFFF;}
</style>
<g>
	<path class="st0" d="M244.5,84.3L244.5,84.3c-12.5-14.7-26.5-20.7-42-19.7c-11.2,0.8-21.6,5.3-31.2,13.5c-9.8-6-20.4-9.5-31.8-10.7
		c0.5-3.3,1.5-6.5,2.9-9.7c3.6-7.3,9.2-13.1,16.8-17.8c-5.8-3.5-11.6-7-17.4-10.6c-16.8,8.4-25.8,21.2-27.3,39.6
		c-7.8,1.8-15.1,4.6-21.9,8.7c-9.4-7.9-19.6-12.3-30.4-13c-15.3-1-29.4,4.9-42.2,19.4C6.6,99.2,0,118.5,0,140.5
		c0,6.6,0.7,13,2.1,19.3c4.7,23.5,15.9,42.7,33.6,57.1c15.9,13.2,30.8,18.6,44.7,17.5c7.3-0.6,14-4.1,20.3-10.5
		c10.9,5.7,21,8.5,30.5,8.5c10.2,0,20.9-3,32.1-9.2c6.4,6.9,13.4,10.7,20.8,11.3c14.2,1.1,29.5-4.2,45.8-17.4
		c18-14.5,28.9-33.8,32.8-57.2c0.9-5.8,1.3-11.6,1.3-17.5C264,119.4,257.5,99.6,244.5,84.3z M56.5,100.8l41.9,14.9
		c-4.5,9.1-11.1,13.6-19.7,13.6c-2.6,0-5.1-0.4-7.3-1.3C59.9,122.1,54.9,113,56.5,100.8z M155.3,191.2L155.3,191.2l-9.4-8.7
		l-7.9,13.4c-3.5,0.4-6.8,0.5-10,0.5c-4.5,0-8.9-0.3-13.1-0.8l-8.9-15.4l-9.4,10.2c-5.1-2.8-9.4-6-13.1-9.7
		c-9.1-8.6-13.8-18.5-14.2-29.9c3,1.7,7.7,3.6,14.1,5.5l11,14.1l9.7-10.2c4.9,0.7,9.5,1.2,13.9,1.3l11,11.9l10-12.3
		c3.7-0.2,7.5-0.5,11.5-1l10.2,10.5l11.3-14.7c6.1-1.4,11.5-2.9,16.3-4.5C185.4,168.6,174.4,181.9,155.3,191.2z M180.7,128.8
		L180.7,128.8c-2.3,0.9-4.8,1.3-7.6,1.3c-8.4,0-14.9-4.6-19.6-13.6l42.2-14.9C197.1,113.8,192.1,122.9,180.7,128.8z"/>
</g>
</svg>
